fd_5_states
version=1
nRows=39
nColumns=17
inDegrees=yes

# SIMM Motion File Header:
name fd_5_states
datacolumns 17
datarows 39
otherdata 1
range 0.030000 0.048415
endheader
time	/jointset/r_shoulder/r_shoulder_elev/value	/jointset/r_shoulder/r_shoulder_elev/speed	/jointset/r_elbow/r_elbow_flex/value	/jointset/r_elbow/r_elbow_flex/speed	/forceset/TRIlong/activation	/forceset/TRIlong/fiber_length	/forceset/TRIlat/activation	/forceset/TRIlat/fiber_length	/forceset/TRImed/activation	/forceset/TRImed/fiber_length	/forceset/BIClong/activation	/forceset/BIClong/fiber_length	/forceset/BICshort/activation	/forceset/BICshort/fiber_length	/forceset/BRA/activation	/forceset/BRA/fiber_length
      0.030000	      0.000000	      0.000000	    127.966686	   -383.497898	      0.020000	      0.182174	      0.392914	      0.116164	      0.398118	      0.111172	      0.347803	      0.064092	      0.020000	      0.065967	      0.023985	      0.052952
      0.030061	     -0.000000	     -0.002564	    127.943175	   -383.423364	      0.020006	      0.182167	      0.392292	      0.116156	      0.397483	      0.111164	      0.347293	      0.064109	      0.020674	      0.065981	      0.024389	      0.052953
      0.030123	     -0.000000	     -0.005267	    127.919669	   -383.347300	      0.020006	      0.182159	      0.391672	      0.116148	      0.396849	      0.111156	      0.346785	      0.064126	      0.021554	      0.065989	      0.024621	      0.052955
      0.030429	     -0.000004	     -0.021176	    127.802212	   -382.944979	      0.020006	      0.182121	      0.388593	      0.116110	      0.393706	      0.111118	      0.344263	      0.064215	      0.025773	      0.066011	      0.025741	      0.052970
      0.030893	     -0.000021	     -0.052440	    127.624781	   -382.286004	      0.020006	      0.182064	      0.384010	      0.116052	      0.389026	      0.111060	      0.340502	      0.064357	      0.031635	      0.066029	      0.027312	      0.053015
      0.031508	     -0.000069	     -0.107192	    127.389999	   -381.342350	      0.020006	      0.181989	      0.378063	      0.115977	      0.382956	      0.110985	      0.335614	      0.064549	      0.038558	      0.066048	      0.029188	      0.053126
      0.032123	     -0.000154	     -0.173319	    127.155809	   -380.357750	      0.020006	      0.181914	      0.372261	      0.115904	      0.377035	      0.110912	      0.330836	      0.064743	      0.044651	      0.066069	      0.030856	      0.053169
      0.032588	     -0.000249	     -0.236365	    126.978916	   -379.542128	      0.020006	      0.181857	      0.367961	      0.115849	      0.372648	      0.110857	      0.327289	      0.064889	      0.048786	      0.066089	      0.031996	      0.053250
      0.033054	     -0.000375	     -0.306888	    126.802411	   -378.695784	      0.020006	      0.181800	      0.363739	      0.115795	      0.368341	      0.110803	      0.323801	      0.065036	      0.052560	      0.066116	      0.033039	      0.053292
      0.033598	     -0.000568	     -0.403408	    126.596651	   -377.631895	      0.020006	      0.181733	      0.358902	      0.115733	      0.363407	      0.110740	      0.319798	      0.065207	      0.056562	      0.066159	      0.034148	      0.053390
      0.034142	     -0.000816	     -0.510238	    126.391482	   -376.528234	      0.020006	      0.181667	      0.354165	      0.115671	      0.358576	      0.110678	      0.315872	      0.065377	      0.060174	      0.066221	      0.035150	      0.053438
      0.034579	     -0.001059	     -0.607418	    126.227088	   -375.585144	      0.020006	      0.181614	      0.350430	      0.115621	      0.354768	      0.110628	      0.312772	      0.065514	      0.062822	      0.066284	      0.035885	      0.053519
      0.035016	     -0.001347	     -0.710614	    126.063111	   -374.626029	      0.020006	      0.181561	      0.346757	      0.115572	      0.351023	      0.110579	      0.309719	      0.065651	      0.065266	      0.066359	      0.036563	      0.053560
      0.035610	     -0.001814	     -0.866121	    125.840953	   -373.256650	      0.020006	      0.181489	      0.341861	      0.115506	      0.346033	      0.110512	      0.305644	      0.065836	      0.068294	      0.066471	      0.037401	      0.053673
      0.036204	     -0.002377	     -1.031816	    125.619615	   -371.870185	      0.020006	      0.181418	      0.337073	      0.115440	      0.341153	      0.110446	      0.301652	      0.066021	      0.071018	      0.066591	      0.038152	      0.053722
      0.036601	     -0.002810	     -1.152805	    125.472232	   -370.900261	      0.020006	      0.181370	      0.333933	      0.115396	      0.337953	      0.110402	      0.299031	      0.066144	      0.072685	      0.066675	      0.038610	      0.053798
      0.036998	     -0.003293	     -1.278114	    125.325235	   -369.925551	      0.020006	      0.181322	      0.330838	      0.115353	      0.334800	      0.110358	      0.296444	      0.066268	      0.074241	      0.066761	      0.039037	      0.053837
      0.037566	     -0.004071	     -1.469811	    125.115743	   -368.486500	      0.020006	      0.181254	      0.326490	      0.115291	      0.330371	      0.110296	      0.292806	      0.066443	      0.076288	      0.066887	      0.039595	      0.053930
      0.038011	     -0.004761	     -1.627280	    124.951842	   -367.344801	      0.020006	      0.181201	      0.323139	      0.115242	      0.326958	      0.110247	      0.289998	      0.066581	      0.077761	      0.066988	      0.039995	      0.053979
      0.038457	     -0.005523	     -1.793682	    124.788456	   -366.172216	      0.020006	      0.181147	      0.319841	      0.115194	      0.323599	      0.110198	      0.287231	      0.066718	      0.079128	      0.067091	      0.040364	      0.054055
      0.038902	     -0.006360	     -1.965703	    124.625594	   -364.993420	      0.020006	      0.181094	      0.316595	      0.115146	      0.320294	      0.110149	      0.284505	      0.066855	      0.080395	      0.067195	      0.040705	      0.054105
      0.039347	     -0.007275	     -2.146412	    124.463263	   -363.786117	      0.020006	      0.181041	      0.313400	      0.115098	      0.317041	      0.110101	      0.281819	      0.066992	      0.081571	      0.067301	      0.041019	      0.054181
      0.039793	     -0.008273	     -2.332491	    124.301472	   -362.574636	      0.020006	      0.180988	      0.310255	      0.115050	      0.313839	      0.110053	      0.279172	      0.067128	      0.082662	      0.067408	      0.041309	      0.054231
      0.039990	     -0.008740	     -2.417491	    124.230161	   -362.030267	      0.020006	      0.180965	      0.308881	      0.115029	      0.312440	      0.110031	      0.278014	      0.067188	      0.083119	      0.067456	      0.041430	      0.054261
      0.040098	     -0.009005	     -2.464858	    124.190923	   -361.729370	      0.020006	      0.180952	      0.308128	      0.115017	      0.311673	      0.110020	      0.277427	      0.067221	      0.083144	      0.067482	      0.042095	      0.054275
      0.040207	     -0.009275	     -2.512752	    124.151717	   -361.426743	      0.020006	      0.180939	      0.307378	      0.115006	      0.310910	      0.110008	      0.276876	      0.067254	      0.083103	      0.067510	      0.043198	      0.054287
      0.040749	     -0.010704	     -2.762274	    123.956188	   -359.872193	      0.020005	      0.180875	      0.303669	      0.114948	      0.307136	      0.109949	      0.274152	      0.067418	      0.082901	      0.067657	      0.048365	      0.054337
      0.041730	     -0.013652	     -3.257737	    123.604643	   -356.873970	      0.020005	      0.180760	      0.297133	      0.114843	      0.300485	      0.109844	      0.269339	      0.067712	      0.082539	      0.067932	      0.056418	      0.054430
      0.042467	     -0.016203	     -3.666991	    123.342419	   -354.469981	      0.020005	      0.180674	      0.292363	      0.114765	      0.295631	      0.109765	      0.265815	      0.067932	      0.082272	      0.068127	      0.061552	      0.054521
      0.043080	     -0.018562	     -4.027375	    123.125592	   -352.401414	      0.020005	      0.180602	      0.288482	      0.114701	      0.291684	      0.109700	      0.262942	      0.068114	      0.082051	      0.068301	      0.065319	      0.054580
      0.043694	     -0.021148	     -4.408757	    122.910059	   -350.253075	      0.020005	      0.180531	      0.284681	      0.114636	      0.287817	      0.109635	      0.260122	      0.068296	      0.081833	      0.068465	      0.068689	      0.054655
      0.044336	     -0.024111	     -4.826344	    122.686005	   -347.946777	      0.020005	      0.180456	      0.280785	      0.114569	      0.283856	      0.109568	      0.257226	      0.068485	      0.081607	      0.068641	      0.071841	      0.054729
      0.044977	     -0.027348	     -5.264501	    122.463452	   -345.571086	      0.020005	      0.180382	      0.276971	      0.114503	      0.279978	      0.109500	      0.254385	      0.068674	      0.081383	      0.068814	      0.074656	      0.054816
      0.045514	     -0.030274	     -5.642949	    122.278511	   -343.556952	      0.020005	      0.180320	      0.273842	      0.114447	      0.276797	      0.109444	      0.252051	      0.068831	      0.081198	      0.068959	      0.076780	      0.054874
      0.046051	     -0.033408	     -6.035578	    122.094663	   -341.496265	      0.020005	      0.180259	      0.270766	      0.114392	      0.273670	      0.109388	      0.249752	      0.068988	      0.081015	      0.069104	      0.078718	      0.054943
      0.046793	     -0.038095	     -6.597060	    121.842252	   -338.603011	      0.020005	      0.180174	      0.266599	      0.114316	      0.269435	      0.109312	      0.246633	      0.069203	      0.080764	      0.069302	      0.081122	      0.055032
      0.047299	     -0.041535	     -6.994010	    121.671360	   -336.589357	      0.020005	      0.180117	      0.263813	      0.114264	      0.266604	      0.109260	      0.244543	      0.069350	      0.080594	      0.069437	      0.082597	      0.055102
      0.047806	     -0.045177	     -7.399497	    121.501492	   -334.561963	      0.020005	      0.180059	      0.261071	      0.114213	      0.263818	      0.109208	      0.242484	      0.069496	      0.080426	      0.069571	      0.083953	      0.055162
      0.048415	     -0.049837	     -7.901522	    121.298427	   -332.085673	      0.020005	      0.179990	      0.257829	      0.114152	      0.260523	      0.109146	      0.240045	      0.069670	      0.080225	      0.069732	      0.085441	      0.055242
